<svg width="24" height="24" viewBox="0 0 24 24" fill="none" xmlns="http://www.w3.org/2000/svg">
<mask id="mask0_1_905" style="mask-type:alpha" maskUnits="userSpaceOnUse" x="0" y="0" width="24" height="24">
<rect width="24" height="24" fill="white"/>
</mask>
<g mask="url(#mask0_1_905)">
<path d="M20.4752 22.2786L16.4838 18.3391C15.8791 18.581 15.1879 18.7711 14.4104 18.9093C13.6328 19.0475 12.8294 19.1166 12 19.1166C9.39093 19.1166 7.00216 18.378 4.83369 16.9006C2.66523 15.4233 1.054 13.3715 0 10.7451C0.311015 9.86393 0.786177 8.97408 1.42549 8.07559C2.06479 7.17711 2.80778 6.31318 3.65443 5.4838L0.466523 2.34773L1.76242 1L21.6933 20.9309L20.4752 22.2786ZM12 15.1512C12.1901 15.1512 12.3931 15.1296 12.6091 15.0864C12.8251 15.0432 13.0022 14.987 13.1404 14.9179L7.77538 9.60475C7.72354 9.76026 7.68035 9.94168 7.64579 10.149C7.61123 10.3564 7.59395 10.5551 7.59395 10.7451C7.59395 11.9892 8.02592 13.0346 8.88985 13.8812C9.75378 14.7279 10.7905 15.1512 12 15.1512ZM19.8272 16.3952L15.9654 12.5076C16.1037 12.3002 16.2117 12.0238 16.2894 11.6782C16.3672 11.3326 16.406 11.0216 16.406 10.7451C16.406 9.51836 15.9784 8.47732 15.1231 7.62203C14.2678 6.76674 13.2268 6.33909 12 6.33909C11.7063 6.33909 11.4039 6.37365 11.0929 6.44276C10.7819 6.51188 10.4968 6.61555 10.2376 6.75378L6.89417 3.41037C7.49892 3.13391 8.29806 2.89201 9.29158 2.68467C10.2851 2.47732 11.2311 2.37365 12.1296 2.37365C14.6695 2.37365 17.0194 3.10799 19.1793 4.57667C21.3391 6.04536 22.946 8.10151 24 10.7451C23.568 11.8855 22.9849 12.9352 22.2505 13.8942C21.5162 14.8531 20.7084 15.6868 19.8272 16.3952ZM13.9698 10.5119L12.0778 8.61987C12.3024 8.48164 12.5616 8.42117 12.8553 8.43845C13.149 8.45572 13.4168 8.5594 13.6587 8.74946C13.8834 8.97408 14.0346 9.2203 14.1123 9.48812C14.1901 9.75594 14.1425 10.0972 13.9698 10.5119Z" fill="#87949C"/>
</g>
</svg>
