<svg width="24" height="24" viewBox="0 0 24 24" fill="none" xmlns="http://www.w3.org/2000/svg">
<g clip-path="url(#clip0_1_839)">
<mask id="mask0_1_839" style="mask-type:alpha" maskUnits="userSpaceOnUse" x="0" y="0" width="24" height="24">
<rect width="24" height="24" fill="white"/>
</mask>
<g mask="url(#mask0_1_839)">
<path fill-rule="evenodd" clip-rule="evenodd" d="M19.203 19.0469C18.8976 19.3179 18.5414 19.4534 18.1342 19.4534H3.52689C3.11972 19.4534 2.76345 19.3179 2.45807 19.0469C2.15269 18.7759 2 18.4598 2 18.0984V6.35501C2 5.99367 2.15269 5.67751 2.45807 5.4065C2.76345 5.1355 3.11972 5 3.52689 5H21.0345C21.8688 5 22.3089 5.98817 21.7507 6.60823L19.9085 8.65468C19.7492 8.83162 19.6611 9.06127 19.6611 9.29934V18.0984C19.6611 18.4598 19.5084 18.7759 19.203 19.0469ZM6.81782 9.33603C6.28566 9.33603 5.85425 9.76744 5.85425 10.2996C5.85425 10.8318 6.28566 11.2632 6.81782 11.2632H15.4899C16.022 11.2632 16.4535 10.8318 16.4535 10.2996C16.4535 9.76744 16.022 9.33603 15.4899 9.33603H6.81782ZM6.81782 13.1903C6.28566 13.1903 5.85425 13.6217 5.85425 14.1539C5.85425 14.686 6.28566 15.1174 6.81782 15.1174H13.5628C14.0949 15.1174 14.5263 14.686 14.5263 14.1539C14.5263 13.6217 14.0949 13.1903 13.5628 13.1903H6.81782Z" fill="#87949C"/>
</g>
</g>
<defs>
<clipPath id="clip0_1_839">
<rect width="24" height="24" fill="white"/>
</clipPath>
</defs>
</svg>
