<svg width="24" height="24" viewBox="0 0 24 24" fill="none" xmlns="http://www.w3.org/2000/svg">
<path fill-rule="evenodd" clip-rule="evenodd" d="M7.28846 4.74872L7.62667 4.31443C7.92303 3.92075 8.3044 3.59038 8.75182 3.35828C9.20518 3.1231 9.70948 2.99791 10.2263 3.00003H13.7737C14.2905 2.99791 14.7948 3.1231 15.2482 3.35828C15.6956 3.59038 16.077 3.92075 16.3733 4.31443L16.7115 4.74872L16.7166 4.75546H17.8333C18.9945 4.75546 20.0705 5.26612 20.8363 6.11143C21.5971 6.95129 22 8.05807 22 9.18177V16.7938C22 17.9175 21.5971 19.0242 20.8363 19.8641C20.0705 20.7094 18.9945 21.2201 17.8333 21.2201H6.16667C5.00547 21.2201 3.92951 20.7094 3.16372 19.8641C2.40288 19.0242 2 17.9175 2 16.7938V9.18177C2 8.05807 2.40288 6.95129 3.16372 6.11143C3.9295 5.26612 5.00547 4.75546 6.16667 4.75546H7.28337L7.28846 4.74872ZM8.86894 12.5955C8.86894 10.9109 10.2345 9.54533 11.9191 9.54533C13.6037 9.54533 14.9693 10.9109 14.9693 12.5955C14.9693 14.28 13.6037 15.6457 11.9191 15.6457C10.2345 15.6457 8.86894 14.28 8.86894 12.5955ZM11.9191 7.87866C9.31407 7.87866 7.20227 9.99046 7.20227 12.5955C7.20227 15.2005 9.31407 17.3123 11.9191 17.3123C14.5241 17.3123 16.6359 15.2005 16.6359 12.5955C16.6359 9.99046 14.5241 7.87866 11.9191 7.87866Z" fill="#87949C"/>
</svg>
