<svg width="24" height="24" viewBox="0 0 24 24" fill="none" xmlns="http://www.w3.org/2000/svg">
<path d="M19.0125 11.8587C18.9338 9.95937 18.2294 8.34649 16.8993 7.02008C15.5692 5.69368 13.9519 4.99123 12.0472 4.91274V3.5C13.1963 3.53139 14.2706 3.77078 15.2701 4.21814C16.2697 4.66551 17.1472 5.26593 17.9028 6.01939C18.6583 6.77285 19.2604 7.64797 19.709 8.64474C20.1576 9.64151 20.3977 10.7128 20.4292 11.8587H19.0125ZM14.9986 11.8587C14.9199 11.0739 14.6051 10.4107 14.0542 9.86911C13.5032 9.32756 12.8343 9.01754 12.0472 8.93906V7.52632C13.2278 7.6048 14.2312 8.05217 15.0576 8.86842C15.884 9.68467 16.3366 10.6814 16.4153 11.8587H14.9986ZM19.4375 20.5C17.5171 20.5 15.6086 20.0291 13.7118 19.0873C11.815 18.1454 10.1111 16.9211 8.6 15.4141C7.08889 13.9072 5.86111 12.208 4.91667 10.3165C3.97222 8.42498 3.5 6.5217 3.5 4.60665C3.5 4.3084 3.60231 4.05725 3.80694 3.85319C4.01157 3.64912 4.26343 3.54709 4.5625 3.54709H7.86806C8.08843 3.54709 8.28125 3.62165 8.44653 3.77078C8.61181 3.9199 8.71806 4.12004 8.76528 4.37119L9.40278 7.33795C9.43426 7.55771 9.43032 7.75785 9.39097 7.93837C9.35162 8.11888 9.26898 8.27193 9.14306 8.39751L6.78194 10.7756C7.66343 12.2355 8.65116 13.5069 9.74514 14.59C10.8391 15.6731 12.0787 16.5914 13.4639 17.3449L15.7069 15.0374C15.8644 14.8647 16.0454 14.7431 16.25 14.6724C16.4546 14.6018 16.6593 14.59 16.8639 14.6371L19.6736 15.2493C19.9097 15.2964 20.1065 15.4141 20.2639 15.6025C20.4213 15.7909 20.5 16.0106 20.5 16.2618V19.4404C20.5 19.7387 20.3977 19.9898 20.1931 20.1939C19.9884 20.398 19.7366 20.5 19.4375 20.5Z" fill="#87949C"/>
</svg>
