<svg width="24" height="24" viewBox="0 0 24 24" fill="none" xmlns="http://www.w3.org/2000/svg">
<path fill-rule="evenodd" clip-rule="evenodd" d="M14.9086 21.6146C16.3979 21.1477 17.7996 20.3243 18.9796 19.1442C20.5602 17.5636 21.5011 15.5856 21.8022 13.5318H19.7752C19.4915 15.0697 18.7549 16.5405 17.5654 17.73C16.7816 18.5138 15.8755 19.101 14.9086 19.4915V21.6146ZM4.04193 13.5318C4.32569 15.0697 5.06229 16.5405 6.25172 17.73C7.45514 18.9334 8.94657 19.6732 10.5041 19.9496V21.9746C8.43097 21.6821 6.432 20.7387 4.83751 19.1442C3.25694 17.5636 2.31608 15.5856 2.01492 13.5318H4.04193ZM10.5041 4.19664C8.94657 4.47296 7.45514 5.21283 6.25172 6.41625C5.46784 7.20013 4.88064 8.10621 4.49012 9.07318H2.36702C2.8339 7.58383 3.6574 6.18215 4.83751 5.00203C6.432 3.40755 8.43097 2.46408 10.5041 2.17163V4.19664Z" fill="#87949C"/>
<path fill-rule="evenodd" clip-rule="evenodd" d="M17.0149 2C17.5672 2 18.0149 2.3198 18.0149 2.71429L18.0149 11.2857C18.0149 11.6802 17.5672 12 17.0149 12C16.4626 12 16.0149 11.6802 16.0149 11.2857L16.0149 2.71429C16.0149 2.3198 16.4626 2 17.0149 2Z" fill="#09D261"/>
<path fill-rule="evenodd" clip-rule="evenodd" d="M22.0149 7C22.0149 7.55229 21.6951 8 21.3006 8L12.7292 8C12.3347 8 12.0149 7.55228 12.0149 7C12.0149 6.44771 12.3347 6 12.7292 6L21.3006 6C21.6951 6 22.0149 6.44772 22.0149 7Z" fill="#09D261"/>
</svg>
