<svg width="24" height="24" viewBox="0 0 24 24" fill="none" xmlns="http://www.w3.org/2000/svg">
<path d="M12.0031 16.406C13.2278 16.406 14.2678 15.9774 15.1231 15.1201C15.9784 14.2627 16.406 13.2217 16.406 11.9969C16.406 10.7722 15.9774 9.73218 15.1201 8.87689C14.2627 8.0216 13.2217 7.59395 11.9969 7.59395C10.7722 7.59395 9.73218 8.02262 8.87689 8.87995C8.0216 9.73726 7.59395 10.7783 7.59395 12.0031C7.59395 13.2278 8.02262 14.2678 8.87995 15.1231C9.73726 15.9784 10.7783 16.406 12.0031 16.406ZM12 14.4881C11.3089 14.4881 10.7214 14.2462 10.2376 13.7624C9.75378 13.2786 9.51188 12.6911 9.51188 12C9.51188 11.3089 9.75378 10.7214 10.2376 10.2376C10.7214 9.75378 11.3089 9.51188 12 9.51188C12.6911 9.51188 13.2786 9.75378 13.7624 10.2376C14.2462 10.7214 14.4881 11.3089 14.4881 12C14.4881 12.6911 14.2462 13.2786 13.7624 13.7624C13.2786 14.2462 12.6911 14.4881 12 14.4881ZM12 20.3715C9.33909 20.3715 6.93737 19.594 4.79482 18.0389C2.65227 16.4838 1.054 14.4708 0 12C1.054 9.52916 2.65227 7.5162 4.79482 5.96112C6.93737 4.40605 9.33909 3.62851 12 3.62851C14.6609 3.62851 17.0626 4.40605 19.2052 5.96112C21.3477 7.5162 22.946 9.52916 24 12C22.946 14.4708 21.3477 16.4838 19.2052 18.0389C17.0626 19.594 14.6609 20.3715 12 20.3715ZM11.9979 18.2203C14.0792 18.2203 15.9908 17.6544 17.7327 16.5227C19.4746 15.3909 20.8035 13.8834 21.7192 12C20.8035 10.1166 19.4753 8.60907 17.7348 7.47732C15.9942 6.34557 14.0833 5.7797 12.0021 5.7797C9.92079 5.7797 8.0092 6.34557 6.26729 7.47732C4.52538 8.60907 3.18791 10.1166 2.25486 12C3.18791 13.8834 4.52469 15.3909 6.26522 16.5227C8.00576 17.6544 9.91667 18.2203 11.9979 18.2203Z" fill="#87949C"/>
</svg>
