<svg width="24" height="24" viewBox="0 0 24 24" fill="none" xmlns="http://www.w3.org/2000/svg">
<path d="M12.0014 14.3451C11.1094 14.3451 10.3637 14.0285 9.76428 13.3953C9.16485 12.7621 8.86513 11.9932 8.86513 11.0887V5.11057C8.86513 4.26002 9.17032 3.52896 9.78071 2.91738C10.3911 2.30579 11.1323 2 12.0043 2C12.8763 2 13.6201 2.30579 14.2357 2.91738C14.8514 3.52896 15.1592 4.26002 15.1592 5.11057V11.0887C15.1592 11.9932 14.8559 12.7621 14.2493 13.3953C13.6427 14.0285 12.8934 14.3451 12.0014 14.3451ZM11.0037 22V18.6221C9.05954 18.4115 7.44755 17.5924 6.16768 16.1648C4.88781 14.7372 4.24788 13.0452 4.24788 11.0887H6.26489C6.26489 12.6602 6.82416 13.9887 7.9427 15.0741C9.06126 16.1596 10.414 16.7023 12.001 16.7023C13.588 16.7023 14.9405 16.1584 16.0583 15.0706C17.1762 13.9829 17.7351 12.6556 17.7351 11.0887H19.7521C19.7521 13.049 19.1122 14.742 17.8323 16.1677C16.5525 17.5934 14.9405 18.4107 12.9964 18.6196V22H11.0037Z" fill="#87949C"/>
</svg>
