<svg width="24" height="24" viewBox="0 0 24 24" fill="none" xmlns="http://www.w3.org/2000/svg">
<path fill-rule="evenodd" clip-rule="evenodd" d="M12.014 10.2771C13.0837 10.2771 13.9508 9.40994 13.9508 8.34028C13.9508 7.27061 13.0837 6.40348 12.014 6.40348C10.9444 6.40348 10.0772 7.27061 10.0772 8.34028C10.0772 9.40994 10.9444 10.2771 12.014 10.2771ZM12.014 11.6806C13.8588 11.6806 15.3543 10.1851 15.3543 8.34028C15.3543 6.49549 13.8588 5 12.014 5C10.1692 5 8.67375 6.49549 8.67375 8.34028C8.67375 10.1851 10.1692 11.6806 12.014 11.6806Z" fill="#87949C"/>
<path fill-rule="evenodd" clip-rule="evenodd" d="M18.5823 11.9613C19.1795 11.9613 19.677 11.4723 19.677 10.8525C19.677 10.2328 19.1795 9.74379 18.5823 9.74379C17.9851 9.74379 17.4876 10.2328 17.4876 10.8525C17.4876 11.4723 17.9851 11.9613 18.5823 11.9613ZM18.5823 13.3648C19.962 13.3648 21.0805 12.24 21.0805 10.8525C21.0805 9.46507 19.962 8.34031 18.5823 8.34031C17.2026 8.34031 16.0841 9.46507 16.0841 10.8525C16.0841 12.24 17.2026 13.3648 18.5823 13.3648Z" fill="#87949C"/>
<path fill-rule="evenodd" clip-rule="evenodd" d="M5.45976 11.9613C4.84742 11.9613 4.35102 11.4649 4.35102 10.8525C4.35102 10.2402 4.84742 9.74379 5.45976 9.74379C6.07211 9.74379 6.56851 10.2402 6.56851 10.8525C6.56851 11.4649 6.07211 11.9613 5.45976 11.9613ZM5.45976 13.3648C4.0723 13.3648 2.94754 12.24 2.94754 10.8525C2.94754 9.46507 4.0723 8.34031 5.45976 8.34031C6.84723 8.34031 7.97199 9.46507 7.97199 10.8525C7.97199 12.24 6.84723 13.3648 5.45976 13.3648Z" fill="#87949C"/>
<path fill-rule="evenodd" clip-rule="evenodd" d="M18.5543 18.2208C18.5543 17.7338 18.5543 17.2629 18.5194 16.8173C18.3546 14.7097 17.4104 13.1683 12 13.1683C6.58962 13.1683 5.64539 14.7097 5.48061 16.8173C5.44577 17.2629 5.44577 17.7338 5.44577 18.2208H18.5543ZM6.89178 16.8173H17.1082C17.0537 16.2147 16.9352 15.8587 16.6897 15.5847C16.3062 15.1567 15.2346 14.5717 12 14.5717C8.7654 14.5717 7.6938 15.1567 7.3103 15.5847C7.06481 15.8587 6.94628 16.2147 6.89178 16.8173Z" fill="#87949C"/>
<path fill-rule="evenodd" clip-rule="evenodd" d="M1.6936 15.996C1.94898 15.7167 2.61539 15.3857 4.4914 15.3857V13.9822C2.57802 13.9822 1.34973 14.2922 0.657763 15.0491C-0.00328922 15.7721 -0.00131001 16.7413 0.000138952 17.451C0.000205339 17.4836 0.00027087 17.5156 0.00027087 17.5471V18.2488H4.4914V16.8453H1.42043C1.44836 16.4345 1.51977 16.1862 1.6936 15.996Z" fill="#87949C"/>
<path fill-rule="evenodd" clip-rule="evenodd" d="M22.3064 15.996C22.051 15.7167 21.3846 15.3857 19.5086 15.3857V13.9822C21.422 13.9822 22.6503 14.2922 23.3422 15.0491C24.0033 15.7721 24.0013 16.7413 23.9999 17.451C23.9998 17.4836 23.9997 17.5156 23.9997 17.5471V18.2488H19.5086V16.8453H22.5796C22.5516 16.4345 22.4802 16.1862 22.3064 15.996Z" fill="#87949C"/>
</svg>
