<svg width="24" height="24" viewBox="0 0 24 24" fill="none" xmlns="http://www.w3.org/2000/svg">
<mask id="mask0_1_845" style="mask-type:alpha" maskUnits="userSpaceOnUse" x="0" y="0" width="24" height="24">
<rect width="24" height="24" fill="white"/>
</mask>
<g mask="url(#mask0_1_845)">
<path fill-rule="evenodd" clip-rule="evenodd" d="M12 15.8044C14.0297 15.8044 15.7568 14.1457 15.7568 12C15.7568 9.85432 14.0297 8.1956 12 8.1956C9.9703 8.1956 8.24318 9.85432 8.24318 12C8.24318 14.1457 9.9703 15.8044 12 15.8044ZM12 17.7C15.148 17.7 17.7 15.148 17.7 12C17.7 8.85198 15.148 6.3 12 6.3C8.85198 6.3 6.3 8.85198 6.3 12C6.3 15.148 8.85198 17.7 12 17.7Z" fill="#87949C"/>
<path d="M10.7727 3.78691C10.7727 3.2872 10.3241 2.90021 9.8341 3.02289C5.90974 4.00552 3 7.59763 3 11.8785C3 13.6059 3.47377 15.2211 4.29679 16.598C4.55724 17.0338 5.16028 17.0729 5.51775 16.7106C5.79569 16.4289 5.82842 15.9943 5.6324 15.6518C5.00008 14.547 4.63636 13.2597 4.63636 11.8785C4.63636 8.38061 6.96917 5.48482 10.0897 4.63085C10.4797 4.52412 10.7727 4.18701 10.7727 3.78691Z" fill="#87949C"/>
<path d="M18.4823 16.7106C18.2043 16.4289 18.1716 15.9943 18.3676 15.6518C18.9999 14.547 19.3636 13.2597 19.3636 11.8785C19.3636 8.38061 17.0308 5.48482 13.9103 4.63085C13.5203 4.52412 13.2273 4.18701 13.2273 3.78691C13.2273 3.2872 13.676 2.90021 14.1659 3.02289C18.0903 4.00552 21 7.59763 21 11.8785C21 13.6059 20.5262 15.2211 19.7032 16.598C19.4428 17.0338 18.8397 17.0729 18.4823 16.7106Z" fill="#87949C"/>
<path d="M7.19733 18.4837C7.4869 18.1902 7.94884 18.158 8.3046 18.3687C9.39454 19.0141 10.6588 19.3822 12 19.3822C13.3412 19.3822 14.6055 19.0141 15.6954 18.3687C16.0512 18.158 16.5131 18.1902 16.8027 18.4837C17.1476 18.8332 17.11 19.4046 16.6916 19.6641C15.3255 20.5116 13.719 21 12 21C10.281 21 8.67455 20.5116 7.3084 19.6641C6.89002 19.4046 6.85244 18.8332 7.19733 18.4837Z" fill="#87949C"/>
</g>
</svg>
