<svg width="24" height="24" viewBox="0 0 24 24" fill="none" xmlns="http://www.w3.org/2000/svg">
<path d="M11.9776 11.2039L7.25224 6.4113V9.14351H5.90853V4.10461H10.9474V5.44832H8.12565L12 9.27788L17.1733 4.08221L18.1363 5.0452L11.9776 11.2039ZM12 12.1892C13.8812 12.1892 15.6803 12.5662 17.3972 13.3202C19.1142 14.0742 20.5848 15.1678 21.8091 16.6011C21.9285 16.7504 21.9919 16.9146 21.9994 17.0938C22.0069 17.2729 21.9434 17.4297 21.8091 17.5641L19.7039 19.6692C19.5845 19.7886 19.4128 19.8558 19.1888 19.8708C18.9649 19.8857 18.7857 19.8409 18.6513 19.7364L16.1207 17.8328C16.0311 17.7582 15.9602 17.676 15.9079 17.5865C15.8557 17.4969 15.8296 17.3924 15.8296 17.2729V14.1824C15.2025 13.9435 14.5642 13.7756 13.9148 13.6785C13.2653 13.5815 12.6271 13.5329 12 13.5329C11.3729 13.5329 10.7347 13.5815 10.0852 13.6785C9.43576 13.7756 8.7975 13.9435 8.17044 14.1824V17.2729C8.17044 17.3924 8.14804 17.4969 8.10325 17.5865C8.05846 17.676 7.99128 17.7582 7.9017 17.8328L5.34866 19.7364C5.1695 19.8708 4.9866 19.9305 4.79998 19.9155C4.61335 19.9006 4.44539 19.8185 4.29609 19.6692L2.19095 17.5641C2.05658 17.4297 1.99312 17.2729 2.00059 17.0938C2.00805 16.9146 2.07151 16.7504 2.19095 16.6011C3.41521 15.1678 4.88582 14.0742 6.60278 13.3202C8.31974 12.5662 10.1188 12.1892 12 12.1892Z" fill="#87949C"/>
</svg>
