<svg width="24" height="24" viewBox="0 0 24 24" fill="none" xmlns="http://www.w3.org/2000/svg">
<path fill-rule="evenodd" clip-rule="evenodd" d="M7.28846 4.74872L7.62667 4.31443C7.92303 3.92075 8.3044 3.59038 8.75182 3.35828C9.20518 3.12309 9.70948 2.99791 10.2263 3.00003H13.7737C14.2905 2.99791 14.7948 3.1231 15.2482 3.35828C15.6956 3.59038 16.077 3.92075 16.3733 4.31443L16.7115 4.74872L16.7166 4.75546H17.8333C18.9945 4.75546 20.0705 5.26612 20.8363 6.11143C21.5971 6.95129 22 8.05807 22 9.18177V16.7938C22 17.9175 21.5971 19.0242 20.8363 19.8641C20.0705 20.7094 18.9945 21.2201 17.8333 21.2201H6.16667C5.00547 21.2201 3.92951 20.7094 3.16372 19.8641C2.40288 19.0242 2 17.9175 2 16.7938V9.18177C2 8.05807 2.40288 6.95129 3.16372 6.11143C3.9295 5.26612 5.00547 4.75546 6.16667 4.75546H7.28337L7.28846 4.74872ZM7.34028 6.42213H6.16667C5.50363 6.42213 4.86774 6.71288 4.3989 7.23041C3.93006 7.74794 3.66667 8.44986 3.66667 9.18177V16.7938C3.66667 17.5257 3.93006 18.2276 4.3989 18.7451C4.86774 19.2627 5.50363 19.5534 6.16667 19.5534H17.8333C18.4964 19.5534 19.1323 19.2627 19.6011 18.7451C20.0699 18.2276 20.3333 17.5257 20.3333 16.7938V9.18177C20.3333 8.44986 20.0699 7.74794 19.6011 7.23041C19.1323 6.71288 18.4964 6.42213 17.8333 6.42213H16.6597C16.4171 6.42145 16.1776 6.36206 15.958 6.24816C15.7385 6.13426 15.5442 5.96862 15.3889 5.76288L15.0486 5.32594C14.8946 5.11857 14.7006 4.95178 14.4807 4.83773C14.2609 4.72367 14.0207 4.66524 13.7778 4.66669H10.2222C9.9793 4.66524 9.73915 4.72367 9.51929 4.83773C9.29943 4.95178 9.10541 5.11857 8.95139 5.32594L8.61111 5.76288C8.4558 5.96862 8.26153 6.13426 8.04196 6.24816C7.8224 6.36206 7.58288 6.42145 7.34028 6.42213Z" fill="#87949C"/>
<path fill-rule="evenodd" clip-rule="evenodd" d="M11.9191 9.54533C10.2346 9.54533 8.86895 10.9109 8.86895 12.5955C8.86895 14.28 10.2346 15.6457 11.9191 15.6457C13.6037 15.6457 14.9693 14.28 14.9693 12.5955C14.9693 10.9109 13.6037 9.54533 11.9191 9.54533ZM7.20229 12.5955C7.20229 9.99046 9.31408 7.87866 11.9191 7.87866C14.5241 7.87866 16.6359 9.99046 16.6359 12.5955C16.6359 15.2005 14.5241 17.3123 11.9191 17.3123C9.31408 17.3123 7.20229 15.2005 7.20229 12.5955Z" fill="#87949C"/>
</svg>
